<svg width="28" height="28" viewBox="0 0 28 28" fill="none" xmlns="http://www.w3.org/2000/svg">
    <g filter="url(#filter0_dd)">
        <path fill-rule="evenodd" clip-rule="evenodd"
              d="M16 0C9.37273 0 4 5.37273 4 12C4 18.6273 9.37273 24 16 24C22.6273 24 28 18.6273 28 12C28 5.37273 22.6273 0 16 0ZM17.0909 16.3636C17.0909 16.653 16.976 16.9304 16.7714 17.135C16.5668 17.3396 16.2893 17.4545 16 17.4545C15.7107 17.4545 15.4332 17.3396 15.2286 17.135C15.024 16.9304 14.9091 16.653 14.9091 16.3636V13.0909H11.6364C11.347 13.0909 11.0696 12.976 10.865 12.7714C10.6604 12.5668 10.5455 12.2893 10.5455 12C10.5455 11.7107 10.6604 11.4332 10.865 11.2286C11.0696 11.024 11.347 10.9091 11.6364 10.9091H14.9091V7.63636C14.9091 7.34704 15.024 7.06956 15.2286 6.86497C15.4332 6.66039 15.7107 6.54545 16 6.54545C16.2893 6.54545 16.5668 6.66039 16.7714 6.86497C16.976 7.06956 17.0909 7.34704 17.0909 7.63636V10.9091H20.3636C20.653 10.9091 20.9304 11.024 21.135 11.2286C21.3396 11.4332 21.4545 11.7107 21.4545 12C21.4545 12.2893 21.3396 12.5668 21.135 12.7714C20.9304 12.976 20.653 13.0909 20.3636 13.0909H17.0909V16.3636Z"
              fill="#F8D4D4"/>
    </g>
    <defs>
        <filter id="filter0_dd" x="0" y="0" width="28" height="28" filterUnits="userSpaceOnUse"
                color-interpolation-filters="sRGB">
            <feFlood flood-opacity="0" result="BackgroundImageFix"/>
            <feColorMatrix in="SourceAlpha" type="matrix" values="0 0 0 0 0 0 0 0 0 0 0 0 0 0 0 0 0 0 127 0"/>
            <feOffset dx="-4" dy="4"/>
            <feColorMatrix type="matrix" values="0 0 0 0 0.620833 0 0 0 0 0.377674 0 0 0 0 0.377674 0 0 0 1 0"/>
            <feBlend mode="normal" in2="BackgroundImageFix" result="effect1_dropShadow"/>
            <feColorMatrix in="SourceAlpha" type="matrix" values="0 0 0 0 0 0 0 0 0 0 0 0 0 0 0 0 0 0 127 0"/>
            <feOffset dx="-2" dy="2"/>
            <feColorMatrix type="matrix" values="0 0 0 0 0.958333 0 0 0 0 0.399306 0 0 0 0 0.399306 0 0 0 1 0"/>
            <feBlend mode="normal" in2="effect1_dropShadow" result="effect2_dropShadow"/>
            <feBlend mode="normal" in="SourceGraphic" in2="effect2_dropShadow" result="shape"/>
        </filter>
    </defs>
</svg>
