<svg width="28" height="24" viewBox="0 0 28 24" fill="none" xmlns="http://www.w3.org/2000/svg">
    <path d="M6.5334 7.38464C5.79079 7.38464 5.0786 7.6764 4.5535 8.19573C4.0284 8.71506 3.7334 9.41943 3.7334 10.1539V12.9231H9.3334V10.1539C9.3334 9.41943 9.0384 8.71506 8.5133 8.19573C7.9882 7.6764 7.276 7.38464 6.5334 7.38464Z"
          fill="#F8D4D4"/>
    <path fill-rule="evenodd" clip-rule="evenodd"
          d="M0 2.76923C0 2.03479 0.294999 1.33042 0.820101 0.811089C1.3452 0.291757 2.05739 0 2.8 0H10.2667C11.0093 0 11.7215 0.291757 12.2466 0.811089C12.7717 1.33042 13.0667 2.03479 13.0667 2.76923V21.2308C13.0667 21.9652 12.7717 22.6696 12.2466 23.1889C11.7215 23.7082 11.0093 24 10.2667 24H2.8C2.05739 24 1.3452 23.7082 0.820101 23.1889C0.294999 22.6696 0 21.9652 0 21.2308L0 2.76923ZM3.73333 18.4615V14.7692H9.33333V18.4615H11.2V10.1538C11.2 8.92977 10.7083 7.75583 9.83317 6.89028C8.958 6.02472 7.77101 5.53846 6.53333 5.53846C5.29566 5.53846 4.10867 6.02472 3.2335 6.89028C2.35833 7.75583 1.86667 8.92977 1.86667 10.1538V18.4615H3.73333Z"
          fill="#F8D4D4"/>
    <path d="M22.3998 11.077H18.6665V7.38464H22.3998C22.8949 7.38464 23.3697 7.57915 23.7198 7.92537C24.0698 8.27159 24.2665 8.74117 24.2665 9.2308C24.2665 9.72043 24.0698 10.19 23.7198 10.5362C23.3697 10.8824 22.8949 11.077 22.3998 11.077Z"
          fill="#F8D4D4"/>
    <path d="M22.3998 16.6154H18.6665V12.9231H22.3998C22.8949 12.9231 23.3697 13.1176 23.7198 13.4638C24.0698 13.81 24.2665 14.2796 24.2665 14.7692C24.2665 15.2589 24.0698 15.7285 23.7198 16.0747C23.3697 16.4209 22.8949 16.6154 22.3998 16.6154Z"
          fill="#F8D4D4"/>
    <path fill-rule="evenodd" clip-rule="evenodd"
          d="M14.9331 2.76923C14.9331 2.03479 15.2281 1.33042 15.7532 0.811089C16.2783 0.291757 16.9905 0 17.7331 0H25.1998C25.9424 0 26.6546 0.291757 27.1797 0.811089C27.7048 1.33042 27.9998 2.03479 27.9998 2.76923V21.2308C27.9998 21.9652 27.7048 22.6696 27.1797 23.1889C26.6546 23.7082 25.9424 24 25.1998 24H17.7331C16.9905 24 16.2783 23.7082 15.7532 23.1889C15.2281 22.6696 14.9331 21.9652 14.9331 21.2308V2.76923ZM22.3998 5.53846H16.7998V18.4615H22.3998C23.1581 18.4616 23.8985 18.2332 24.5224 17.8069C25.1462 17.3805 25.624 16.7763 25.8922 16.0748C26.1603 15.3732 26.2061 14.6075 26.0234 13.8796C25.8406 13.1517 25.4381 12.4961 24.8694 12C25.4381 11.5039 25.8406 10.8483 26.0234 10.1204C26.2061 9.39247 26.1603 8.62679 25.8922 7.92523C25.624 7.22368 25.1462 6.61951 24.5224 6.19314C23.8985 5.76677 23.1581 5.53841 22.3998 5.53846Z"
          fill="#F8D4D4"/>
</svg>
