<svg width="28" height="28" viewBox="0 0 28 28" fill="none" xmlns="http://www.w3.org/2000/svg">
    <path d="M1.55556 15.5556H10.8889C11.3014 15.5556 11.6971 15.3917 11.9888 15.0999C12.2806 14.8082 12.4444 14.4126 12.4444 14V1.55556C12.4444 1.143 12.2806 0.747335 11.9888 0.455612C11.6971 0.163888 11.3014 0 10.8889 0H1.55556C1.143 0 0.747335 0.163888 0.455612 0.455612C0.163888 0.747335 0 1.143 0 1.55556V14C0 14.4126 0.163888 14.8082 0.455612 15.0999C0.747335 15.3917 1.143 15.5556 1.55556 15.5556ZM0 26.4444C0 26.857 0.163888 27.2527 0.455612 27.5444C0.747335 27.8361 1.143 28 1.55556 28H10.8889C11.3014 28 11.6971 27.8361 11.9888 27.5444C12.2806 27.2527 12.4444 26.857 12.4444 26.4444V20.2222C12.4444 19.8097 12.2806 19.414 11.9888 19.1223C11.6971 18.8306 11.3014 18.6667 10.8889 18.6667H1.55556C1.143 18.6667 0.747335 18.8306 0.455612 19.1223C0.163888 19.414 0 19.8097 0 20.2222V26.4444ZM15.5556 26.4444C15.5556 26.857 15.7194 27.2527 16.0112 27.5444C16.3029 27.8361 16.6986 28 17.1111 28H26.4444C26.857 28 27.2527 27.8361 27.5444 27.5444C27.8361 27.2527 28 26.857 28 26.4444V15.5556C28 15.143 27.8361 14.7473 27.5444 14.4556C27.2527 14.1639 26.857 14 26.4444 14H17.1111C16.6986 14 16.3029 14.1639 16.0112 14.4556C15.7194 14.7473 15.5556 15.143 15.5556 15.5556V26.4444ZM17.1111 10.8889H26.4444C26.857 10.8889 27.2527 10.725 27.5444 10.4333C27.8361 10.1416 28 9.74589 28 9.33333V1.55556C28 1.143 27.8361 0.747335 27.5444 0.455612C27.2527 0.163888 26.857 0 26.4444 0H17.1111C16.6986 0 16.3029 0.163888 16.0112 0.455612C15.7194 0.747335 15.5556 1.143 15.5556 1.55556V9.33333C15.5556 9.74589 15.7194 10.1416 16.0112 10.4333C16.3029 10.725 16.6986 10.8889 17.1111 10.8889Z"
          fill="#F8D4D4"/>
</svg>
