<svg width="26" height="26" viewBox="0 0 26 26" fill="none" xmlns="http://www.w3.org/2000/svg">
    <path d="M7.59069 18.4092L7.5908 18.4093C7.80646 18.6249 8.09891 18.746 8.40385 18.746C8.70879 18.746 9.00124 18.6249 9.2169 18.4093L9.21695 18.4093L13 14.6262L16.783 18.4093L16.783 18.4093L16.7892 18.4153C17.0061 18.6248 17.2966 18.7407 17.5982 18.7381C17.8997 18.7355 18.1881 18.6146 18.4013 18.4013L18.0478 18.0478L18.4013 18.4013C18.6146 18.1881 18.7355 17.8997 18.7381 17.5982C18.7407 17.2966 18.6248 17.0061 18.4153 16.7892L18.4154 16.7892L18.4093 16.783L14.6262 13L18.4093 9.21695L18.4093 9.21701L18.4153 9.21076C18.6248 8.99386 18.7407 8.70337 18.7381 8.40185C18.7355 8.10031 18.6146 7.81188 18.4013 7.59867L18.0478 7.95222L18.4013 7.59866C18.1881 7.38545 17.8997 7.2645 17.5982 7.26188C17.2966 7.25926 17.0061 7.37518 16.7892 7.58465L16.7892 7.5846L16.783 7.59075L13 11.3738L9.21695 7.59075L9.21701 7.59069L9.21076 7.58466C8.99386 7.37518 8.70337 7.25926 8.40184 7.26188C8.10032 7.2645 7.81188 7.38545 7.59867 7.59866L7.95222 7.95222L7.59866 7.59867C7.38545 7.81188 7.2645 8.10032 7.26188 8.40184C7.25926 8.70337 7.37518 8.99386 7.58466 9.21076L7.5846 9.21081L7.59075 9.21695L11.3738 13L7.59075 16.783L7.59069 16.7831C7.3751 16.9988 7.25399 17.2912 7.25399 17.5961C7.25399 17.9011 7.3751 18.1935 7.59069 18.4092ZM25.5 13C25.5 19.9038 19.9038 25.5 13 25.5C6.09624 25.5 0.5 19.9038 0.5 13C0.5 6.09624 6.09624 0.5 13 0.5C19.9038 0.5 25.5 6.09624 25.5 13Z"
          fill="#F46666" stroke="#F8D4D4"/>
</svg>
