<svg width="28" height="28" viewBox="0 0 28 28" fill="none" xmlns="http://www.w3.org/2000/svg">
    <path d="M16.0586 11.9413C14.9665 10.8497 13.4855 10.2365 11.9414 10.2365C10.3972 10.2365 8.91631 10.8497 7.8242 11.9413L3.70567 16.0585C2.61355 17.1507 2 18.6319 2 20.1764C2 21.7209 2.61355 23.2021 3.70567 24.2943C4.7978 25.3864 6.27904 25.9999 7.82354 25.9999C9.36803 25.9999 10.8493 25.3864 11.9414 24.2943L14 22.2357"
          stroke="#F8D4D4" stroke-width="2.33333" stroke-linecap="round" stroke-linejoin="round"/>
    <path d="M11.9414 16.0586C13.0335 17.1502 14.5145 17.7635 16.0586 17.7635C17.6028 17.7635 19.0837 17.1502 20.1758 16.0586L24.2943 11.9414C25.3865 10.8493 26 9.36803 26 7.82354C26 6.27904 25.3865 4.7978 24.2943 3.70567C23.2022 2.61355 21.721 2 20.1765 2C18.632 2 17.1507 2.61355 16.0586 3.70567L14 5.76427"
          stroke="#F8D4D4" stroke-width="2.33333" stroke-linecap="round" stroke-linejoin="round"/>
</svg>
