<svg width="33" height="28" viewBox="0 0 33 28" fill="none" xmlns="http://www.w3.org/2000/svg">
    <path d="M8.88477 14C8.88477 13.6625 9.0185 13.3387 9.25653 13.1C9.49456 12.8614 9.8174 12.7273 10.154 12.7273H21.5773V4.45455C21.5773 1.90909 18.8968 0 16.5003 0H4.44239C3.26458 0.00126336 2.13537 0.470986 1.30254 1.3061C0.4697 2.14122 0.00125991 3.27351 0 4.45455V23.5455C0.00125991 24.7265 0.4697 25.8588 1.30254 26.6939C2.13537 27.529 3.26458 27.9987 4.44239 28H17.1349C18.3127 27.9987 19.4419 27.529 20.2748 26.6939C21.1076 25.8588 21.576 24.7265 21.5773 23.5455V15.2727H10.154C9.8174 15.2727 9.49456 15.1386 9.25653 14.9C9.0185 14.6613 8.88477 14.3375 8.88477 14Z"
          fill="#F8D4D4"/>
    <path d="M32.6284 13.1004L26.2821 6.73675C26.0421 6.50814 25.7226 6.38257 25.3916 6.38682C25.0607 6.39107 24.7444 6.5248 24.5104 6.75949C24.2763 6.99418 24.143 7.31127 24.1387 7.64315C24.1345 7.97503 24.2597 8.29544 24.4877 8.53606L28.6667 12.7273H21.5771V15.2728H28.6667L24.4877 19.464C24.3649 19.581 24.2667 19.7215 24.1988 19.8772C24.131 20.0328 24.095 20.2006 24.0928 20.3704C24.0906 20.5403 24.1224 20.7089 24.1862 20.8662C24.25 21.0236 24.3446 21.1665 24.4644 21.2867C24.5842 21.4068 24.7268 21.5017 24.8837 21.5657C25.0407 21.6297 25.2088 21.6615 25.3782 21.6593C25.5476 21.6572 25.7148 21.621 25.8701 21.553C26.0253 21.485 26.1654 21.3865 26.2821 21.2633L32.6284 14.8997C32.8662 14.661 32.9998 14.3374 32.9998 14C32.9998 13.6626 32.8662 13.339 32.6284 13.1004Z"
          fill="#F8D4D4"/>
</svg>
