<svg width="26" height="26" viewBox="0 0 26 26" fill="none" xmlns="http://www.w3.org/2000/svg">
    <path d="M11.6711 18.8161L12.1189 18.321L12.119 18.3208L20.348 9.22655C20.4523 9.11723 20.534 8.98841 20.5885 8.84744C20.6442 8.70336 20.6703 8.54953 20.6653 8.39513C20.6602 8.24072 20.6241 8.08892 20.5591 7.9488L20.1055 8.15921L20.5591 7.94879C20.4941 7.80866 20.4015 7.68306 20.2869 7.57948C20.1723 7.47592 20.038 7.39651 19.892 7.34599C19.746 7.29547 19.5913 7.27489 19.4372 7.28546C19.2831 7.29603 19.1327 7.33754 18.995 7.40753C18.8603 7.47592 18.7405 7.57015 18.6424 7.68479L11.1983 15.9106L9.44508 14.3095L7.30128 12.1751L7.30135 12.175L7.29396 12.1679C7.07346 11.9572 6.77827 11.8427 6.47333 11.8496C6.16839 11.8565 5.87868 11.9842 5.66794 12.2047C5.45719 12.4252 5.34268 12.7204 5.34958 13.0254C5.35648 13.3303 5.48423 13.62 5.70474 13.8308L5.70498 13.831L10.4719 18.3808L10.4721 18.381L10.9548 18.8423L11.3264 19.1974L11.6711 18.8161ZM25.5 13C25.5 19.9038 19.9038 25.5 13 25.5C6.09624 25.5 0.5 19.9038 0.5 13C0.5 6.09624 6.09624 0.5 13 0.5C19.9038 0.5 25.5 6.09624 25.5 13Z"
          fill="#F46666" stroke="#F8D4D4"/>
</svg>
